PathFileType	4	(X/Y/Z)	./resultDataOpenSim/trcMotMarkerGrf/sub06/qtm-04-02.trc
DataRate	CameraRate	NumFrames	NumMarkers	Units	OrigDataRate	OrigDataStartFrame	OrigNumFrames
250.000000	250.000000	11	24	m	250.000000	203	541
Frame#	Time	L.Toe.Tip			R.Toe.Tip			L.Ankle.Lat			R.Ankle.Lat			L.Ankle.Med			R.Ankle.Med			L.Heel			R.Heel			L.Knee.Lat			R.Knee.Lat			L.Knee.Med			R.Knee.Med			L.Thigh.Upper			R.Thigh.Upper			L.ASIS			R.ASIS			V.Sacral			L.Acromium			R.Acromium			C7			L.Elbow			R.Elbow			L.Wrist.Lat			R.Wrist.Lat
		X1	Y1	Z1	X2	Y2	Z2	X3	Y3	Z3	X4	Y4	Z4	X5	Y5	Z5	X6	Y6	Z6	X7	Y7	Z7	X8	Y8	Z8	X9	Y9	Z9	X10	Y10	Z10	X11	Y11	Z11	X12	Y12	Z12	X13	Y13	Z13	X14	Y14	Z14	X15	Y15	Z15	X16	Y16	Z16	X17	Y17	Z17	X18	Y18	Z18	X19	Y19	Z19	X20	Y20	Z20	X21	Y21	Z21	X22	Y22	Z22	X23	Y23	Z23	X24	Y24	Z24

203	0.808	0.083954465	-0.039627721	-0.019248161	-0.49034251	0.088508724	0.14788606	-0.037722523	-0.0093858072	-0.03883636	-0.49043834	0.22606941	0.17509044	-0.035576297	0.0056388238	0.048527052	-0.45385142	0.21258734	0.09426102	-0.11417826	-0.033100633	0.0078399053	-0.5142011	0.27359007	0.11311933	0.064817525	0.34864866	-0.072596648	-0.12589615	0.31113153	0.22055522	0.042655691	0.35034295	0.04813472	-0.14384405	0.29853665	0.088644085	-0.098428922	0.70987431	-0.13770045	-0.1685809	0.67182852	0.20064044	-0.039258784	0.74759539	-0.08127916	-0.0750019	0.73557998	0.1689924	-0.24127583	0.81957708	0.031385821	-0.10602563	1.2105488	-0.16944883	-0.11011887	1.2273403	0.19378208	-0.18543814	1.25956	0.0069509046	-0.20726905	0.91168534	-0.20165679	-0.18038043	0.92665572	0.30761322	-0.10526223	0.69240026	-0.25350418	0.021764357	0.77951072	0.33084123
204	0.812	0.083955077	-0.039619349	-0.019229378	-0.47253196	0.089661582	0.14861815	-0.03765267	-0.0092913659	-0.038716808	-0.47470482	0.2270227	0.17559019	-0.035683503	0.0055800275	0.048677526	-0.43807703	0.2139516	0.094338495	-0.11414707	-0.032952633	0.007842026	-0.49953651	0.2742887	0.11376044	0.06607876	0.3486659	-0.072040742	-0.11140128	0.31351192	0.22033037	0.043747204	0.3503934	0.048653421	-0.1296212	0.30101258	0.088073467	-0.093446097	0.71144499	-0.13798476	-0.16211981	0.67426123	0.20066088	-0.033915953	0.74910698	-0.08163109	-0.069311548	0.73791863	0.16888571	-0.23520051	0.82189017	0.031306374	-0.099095652	1.2128939	-0.16919192	-0.10403356	1.2292577	0.19415143	-0.17861104	1.2618342	0.0070890423	-0.1989716	0.91332747	-0.20288901	-0.17680644	0.92873432	0.30665257	-0.09389986	0.69489972	-0.25235189	0.022893549	0.77870022	0.33152932
205	0.816	0.083935233	-0.03962262	-0.019206461	-0.45442077	0.09063311	0.14930961	-0.037574912	-0.0091771975	-0.038585399	-0.45890104	0.22784045	0.17609756	-0.035782094	0.005551815	0.048805717	-0.42236283	0.21521901	0.094532325	-0.11412153	-0.032830636	0.0078540509	-0.48492921	0.27471999	0.11436691	0.067250926	0.34869236	-0.071456695	-0.096716891	0.31630522	0.21998849	0.0446953	0.35040298	0.049171028	-0.11528841	0.30370324	0.087515367	-0.088383884	0.71309831	-0.13830945	-0.15575944	0.67684922	0.2007026	-0.028438238	0.75070936	-0.081997222	-0.063630893	0.74031936	0.16878925	-0.2291429	0.82421864	0.031744	-0.092272305	1.2153192	-0.16890685	-0.097935282	1.2312265	0.19450666	-0.17183241	1.2641247	0.0072599095	-0.19064835	0.91503894	-0.20407692	-0.17313978	0.93092226	0.30571207	-0.082456648	0.69754122	-0.25109482	0.023927511	0.77801025	0.33217517
206	0.82	0.083912692	-0.039627235	-0.019178716	-0.43598883	0.091424652	0.14993871	-0.037509407	-0.0090524777	-0.03846204	-0.44290912	0.22856394	0.17667772	-0.035848887	0.0055714267	0.048905245	-0.40667059	0.21631373	0.094820152	-0.11410548	-0.032722811	0.0078909269	-0.47037495	0.27485924	0.11491814	0.068335991	0.34872478	-0.070859748	-0.082001664	0.31951165	0.21959998	0.04549686	0.35038642	0.049702975	-0.10093464	0.30664606	0.086917825	-0.083256928	0.71485796	-0.13858135	-0.14945844	0.67958713	0.20072607	-0.022802242	0.75239784	-0.082389579	-0.057870645	0.74274187	0.16862173	-0.22319092	0.82654333	0.03282549	-0.08555665	1.2178154	-0.16860578	-0.09182977	1.2332384	0.19484278	-0.16509597	1.2664348	0.0074612532	-0.18231671	0.91680638	-0.2052072	-0.16936132	0.93320905	0.30478536	-0.071000394	0.70030651	-0.2497813	0.024871159	0.77744532	0.33277298
207	0.824	0.083899486	-0.039625227	-0.019148838	-0.41726767	0.092061941	0.15052645	-0.03748984	-0.0089287825	-0.038386292	-0.42667866	0.22919708	0.17735217	-0.035889587	0.0056282564	0.048983096	-0.39097344	0.21719165	0.095163484	-0.11410274	-0.032623409	0.0079353469	-0.45587025	0.27467366	0.11539211	0.069322778	0.34877376	-0.070266061	-0.067377468	0.32306982	0.21921205	0.046136276	0.35035294	0.050243246	-0.086602134	0.30985524	0.08626593	-0.078113775	0.71672136	-0.13876819	-0.14312571	0.68244971	0.20068089	-0.017081547	0.75414587	-0.0828001	-0.052057757	0.74520565	0.16839465	-0.21729851	0.82887352	0.033918121	-0.078924145	1.220371	-0.16829352	-0.085724148	1.2352849	0.19516044	-0.15840174	1.2687757	0.0076931303	-0.17399325	0.91862493	-0.20626866	-0.16555832	0.93558687	0.30387299	-0.059663584	0.70314992	-0.24850039	0.025741722	0.77700868	0.3333293
208	0.828	0.083893042	-0.039617084	-0.019120672	-0.39833549	0.092591496	0.15115565	-0.037534574	-0.0088149437	-0.038375909	-0.41033778	0.22966345	0.17804173	-0.035923767	0.0057058129	0.049047278	-0.3752885	0.21785755	0.095540706	-0.11411983	-0.032535563	0.0079637164	-0.44141927	0.27414404	0.11578696	0.070212986	0.34885039	-0.069679565	-0.052880532	0.32692841	0.21882092	0.046579031	0.35030162	0.050761748	-0.072257702	0.313298	0.085604669	-0.072961601	0.71865631	-0.13889808	-0.1366727	0.68539834	0.20055685	-0.011411307	0.75593505	-0.083194919	-0.046299372	0.74777013	0.16819266	-0.21135581	0.83123339	0.033980126	-0.072323382	1.222968	-0.16795745	-0.079621113	1.2373594	0.19546437	-0.15175371	1.2711472	0.0079539825	-0.16567761	0.92049186	-0.20726142	-0.16181943	0.93804575	0.30297025	-0.048519067	0.70603643	-0.24728963	0.026571054	0.77669712	0.33385298
209	0.832	0.083885782	-0.0396067	-0.019098738	-0.37923456	0.093058735	0.1519051	-0.03763218	-0.0087141245	-0.038407018	-0.39410734	0.22984996	0.17862317	-0.035967726	0.0057944172	0.049101112	-0.35959827	0.21831572	0.095905727	-0.11415356	-0.032466921	0.0079820151	-0.42702768	0.27327601	0.11613122	0.071014323	0.34895834	-0.069095729	-0.038500969	0.3310585	0.21840196	0.046780151	0.35022164	0.05121529	-0.05780866	0.31692218	0.085007287	-0.067738276	0.72062626	-0.13899568	-0.13008791	0.68839066	0.20042424	-0.0058663896	0.75775552	-0.083543303	-0.040654932	0.7504681	0.16806865	-0.20535085	0.83363686	0.032961821	-0.065700969	1.2255802	-0.16757371	-0.07351457	1.2394545	0.19576048	-0.14515006	1.273532	0.0082375562	-0.15734389	0.92240025	-0.20820581	-0.15814917	0.94057114	0.30206739	-0.037510644	0.70897403	-0.24609732	0.027399715	0.77650362	0.33434838
210	0.836	0.083873569	-0.039596357	-0.019086452	-0.35994893	0.093473329	0.15277993	-0.037747834	-0.0086186393	-0.038436379	-0.3780967	0.22970081	0.17903924	-0.036025158	0.0058896678	0.04914477	-0.34381479	0.21856003	0.096187322	-0.11418099	-0.032413908	0.0080338116	-0.41270159	0.27208507	0.11645824	0.071723576	0.34909756	-0.06851423	-0.024232425	0.33543559	0.21794169	0.046705232	0.35010116	0.051568737	-0.043214631	0.32071905	0.084506133	-0.062384545	0.72260601	-0.13906325	-0.12346183	0.69138636	0.20041266	-0.00040233203	0.75960039	-0.083841807	-0.03506701	0.7532707	0.16798563	-0.19941011	0.8360957	0.032021966	-0.059025901	1.2281853	-0.16712739	-0.067395752	1.2415615	0.19605248	-0.13858063	1.2759043	0.0085352545	-0.14896979	0.92434661	-0.20911383	-0.15450303	0.94314934	0.30115849	-0.026520846	0.7119998	-0.24484807	0.028249383	0.77642248	0.334813
211	0.84	0.083856807	-0.039585991	-0.019084451	-0.34045976	0.093804385	0.1537127	-0.037844722	-0.008512423	-0.038434202	-0.36227938	0.22922701	0.17930593	-0.036088372	0.0059908371	0.049177736	-0.32789726	0.2186134	0.096319635	-0.11418484	-0.032350837	0.0081368813	-0.39843962	0.27058018	0.11676615	0.07232202	0.34926473	-0.067950015	-0.010082732	0.34003371	0.21743347	0.046340236	0.34994843	0.051813951	-0.028671252	0.32475495	0.084049999	-0.056915166	0.72457516	-0.13910163	-0.11690147	0.69435257	0.20060864	0.0050927027	0.76147022	-0.084099696	-0.029454862	0.75613268	0.1678911	-0.1936395	0.83862503	0.031866412	-0.052302336	1.2307874	-0.16663449	-0.061262918	1.2436731	0.19634047	-0.13203712	1.278245	0.0088431176	-0.14057485	0.92632919	-0.20994566	-0.15085204	0.94577011	0.3002423	-0.015479254	0.71513753	-0.24351056	0.029089853	0.77645187	0.33524172
212	0.844	0.083838642	-0.039575052	-0.01909106	-0.32077038	0.094022692	0.1546315	-0.037910352	-0.0083840005	-0.038402619	-0.34663275	0.22843878	0.17943563	-0.036146644	0.0061011171	0.049200477	-0.31194745	0.21853917	0.096260018	-0.11418241	-0.032246792	0.008232483	-0.38421637	0.26876017	0.11701815	0.072797323	0.34945289	-0.067421071	0.0039322675	0.34482928	0.21687143	0.045739224	0.3498254	0.052002372	-0.014544713	0.32909429	0.08355963	-0.051393466	0.72651247	-0.13912119	-0.11041441	0.69727768	0.20098024	0.010723628	0.76337106	-0.084315803	-0.023822122	0.75904604	0.16779965	-0.18798777	0.84120645	0.032005097	-0.045563374	1.2334145	-0.16614022	-0.055121818	1.2457866	0.19662441	-0.12551999	1.2805507	0.0091637331	-0.13218127	0.92833476	-0.21067355	-0.14719479	0.94842388	0.29931817	-0.0043973094	0.7183769	-0.24210148	0.029850345	0.77659145	0.33563039
213	0.848	0.083823706	-0.039562807	-0.019103429	-0.30089138	0.094134499	0.1555225	-0.037957692	-0.0082334866	-0.038364525	-0.33117881	0.22732028	0.17941839	-0.036187967	0.0062292478	0.049212629	-0.29607896	0.21838654	0.096015153	-0.11420674	-0.032091381	0.0082509377	-0.36997965	0.26661577	0.11717935	0.07317626	0.34965659	-0.066922435	0.01779295	0.34979892	0.21626235	0.045065592	0.34984071	0.0522424	-0.00099865291	0.33367996	0.083017744	-0.045863396	0.72840264	-0.13913251	-0.10391965	0.70017889	0.20142885	0.016519262	0.76530204	-0.084484287	-0.018203288	0.76201845	0.16774459	-0.18228758	0.84376924	0.031897122	-0.038849365	1.2360814	-0.16567943	-0.048975446	1.2479017	0.19690673	-0.11903356	1.2828279	0.0095008681	-0.12375304	0.93034191	-0.21137654	-0.14353386	0.95109913	0.29838702	0.0066763786	0.721688	-0.24065755	0.03049883	0.77683682	0.33597544
